{
  "accessors": [
    {
      "bufferView": 2,
      "componentType": 5126,
      "count": 4770,
      "max": [
        0.9619008302688599,
        1.1193621158599854,
        0.9774406552314758
      ],
      "min": [
        -0.9619008302688599,
        -1.088770866394043,
        -0.7853263020515442
      ],
      "type": "VEC3"
    },
    {
      "bufferView": 2,
      "byteOffset": 57240,
      "componentType": 5126,
      "count": 4770,
      "max": [
        0.9999771118164063,
        0.9999831914901733,
        0.9989548325538635
      ],
      "min": [
        -0.9999619722366333,
        -0.9998993873596191,
        -0.9984766840934753
      ],
      "type": "VEC3"
    },
    {
      "bufferView": 3,
      "componentType": 5126,
      "count": 4770,
      "max": [
        0.9999993443489075,
        0.9999992251396179,
        0.7999734878540039,
        1.0
      ],
      "min": [
        -0.9999985098838806,
        -0.9999975562095642,
        -0.8439803123474121,
        1.0
      ],
      "type": "VEC4"
    },
    {
      "bufferView": 1,
      "componentType": 5126,
      "count": 4770,
      "max": [
        0.9867660403251648,
        0.9736228585243225
      ],
      "min": [
        0.021206609904766083,
        0.019569039344787598
      ],
      "type": "VEC2"
    },
    {
      "bufferView": 1,
      "byteOffset": 38160,
      "componentType": 5126,
      "count": 4770,
      "max": [
        0.9867660403251648,
        0.9736228585243225
      ],
      "min": [
        0.021206609904766083,
        0.019569039344787598
      ],
      "type": "VEC2"
    },
    {
      "bufferView": 1,
      "byteOffset": 76320,
      "componentType": 5126,
      "count": 4770,
      "max": [
        0.9867660403251648,
        0.9736228585243225
      ],
      "min": [
        0.021206609904766083,
        0.019569039344787598
      ],
      "type": "VEC2"
    },
    {
      "bufferView": 0,
      "componentType": 5125,
      "count": 26880,
      "type": "SCALAR"
    }
  ],
  "asset": {
    "extras": {
      "author": "assetfactory (https://sketchfab.com/assetfactory)",
      "license": "SKETCHFAB Standard (https://sketchfab.com/licenses)",
      "source": "https://sketchfab.com/3d-models/black-street-hat-2df8787e2bc74cd18c1f366603f227bf",
      "title": "Black street hat"
    },
    "generator": "Sketchfab-16.33.0",
    "version": "2.0"
  },
  "bufferViews": [
    {
      "buffer": 0,
      "byteLength": 107520,
      "name": "floatBufferViews",
      "target": 34963
    },
    {
      "buffer": 0,
      "byteLength": 114480,
      "byteOffset": 107520,
      "byteStride": 8,
      "name": "floatBufferViews",
      "target": 34962
    },
    {
      "buffer": 0,
      "byteLength": 114480,
      "byteOffset": 222000,
      "byteStride": 12,
      "name": "floatBufferViews",
      "target": 34962
    },
    {
      "buffer": 0,
      "byteLength": 76320,
      "byteOffset": 336480,
      "byteStride": 16,
      "name": "floatBufferViews",
      "target": 34962
    }
  ],
  "buffers": [
    {
      "byteLength": 412800,
      "uri": "scene.bin"
    }
  ],
  "images": [
    {
      "uri": "textures/Hat2_baseColor.jpeg"
    },
    {
      "uri": "textures/Hat2_metallicRoughness.png"
    },
    {
      "uri": "textures/Hat2_normal.png"
    }
  ],
  "materials": [
    {
      "doubleSided": true,
      "name": "Hat2",
      "normalTexture": {
        "index": 2
      },
      "occlusionTexture": {
        "index": 1
      },
      "pbrMetallicRoughness": {
        "baseColorTexture": {
          "index": 0
        },
        "metallicFactor": 0.0,
        "metallicRoughnessTexture": {
          "index": 1
        }
      }
    }
  ],
  "meshes": [
    {
      "name": "Cube.002_Hat2_0",
      "primitives": [
        {
          "attributes": {
            "NORMAL": 1,
            "POSITION": 0,
            "TANGENT": 2,
            "TEXCOORD_0": 3,
            "TEXCOORD_1": 4,
            "TEXCOORD_2": 5
          },
          "indices": 6,
          "material": 0,
          "mode": 4
        }
      ]
    }
  ],
  "nodes": [
    {
      "children": [
        1
      ],
      "matrix": [
        1.0,
        0.0,
        0.0,
        0.0,
        0.0,
        2.220446049250313e-16,
        -1.0,
        0.0,
        0.0,
        1.0,
        2.220446049250313e-16,
        0.0,
        0.0,
        0.0,
        0.0,
        1.0
      ],
      "name": "Sketchfab_model"
    },
    {
      "children": [
        2
      ],
      "matrix": [
        0.009999999776482582,
        0.0,
        0.0,
        0.0,
        0.0,
        0.0,
        0.009999999776482582,
        0.0,
        0.0,
        -0.009999999776482582,
        0.0,
        0.0,
        0.0,
        0.0,
        0.0,
        1.0
      ],
      "name": "Hat2.fbx"
    },
    {
      "children": [
        3
      ],
      "name": "RootNode"
    },
    {
      "children": [
        4
      ],
      "matrix": [
        100.0,
        0.0,
        0.0,
        0.0,
        0.0,
        -1.629206793918314e-05,
        -99.99999999999868,
        0.0,
        0.0,
        99.99999999999868,
        -1.629206793918314e-05,
        0.0,
        0.0,
        0.0,
        0.0,
        1.0
      ],
      "name": "Cube.002"
    },
    {
      "mesh": 0,
      "name": "Cube.002_Hat2_0"
    }
  ],
  "samplers": [
    {
      "magFilter": 9729,
      "minFilter": 9987,
      "wrapS": 10497,
      "wrapT": 10497
    }
  ],
  "scene": 0,
  "scenes": [
    {
      "name": "Sketchfab_Scene",
      "nodes": [
        0
      ]
    }
  ],
  "textures": [
    {
      "sampler": 0,
      "source": 0
    },
    {
      "sampler": 0,
      "source": 1
    },
    {
      "sampler": 0,
      "source": 2
    }
  ]
}
