{
  "accessors": [
    {
      "bufferView": 2,
      "componentType": 5126,
      "count": 498,
      "max": [
        1.1510870456695557,
        1.0166490077972412,
        0.5864689946174622
      ],
      "min": [
        -1.1510870456695557,
        0.45724600553512573,
        -0.05404600128531456
      ],
      "type": "VEC3"
    },
    {
      "bufferView": 1,
      "componentType": 5126,
      "count": 498,
      "max": [
        0.0,
        0.0
      ],
      "min": [
        0.0,
        0.0
      ],
      "type": "VEC2"
    },
    {
      "bufferView": 0,
      "componentType": 5125,
      "count": 516,
      "type": "SCALAR"
    },
    {
      "bufferView": 2,
      "byteOffset": 5976,
      "componentType": 5126,
      "count": 65532,
      "max": [
        -0.49893099069595337,
        1.0194809436798096,
        0.753708004951477
      ],
      "min": [
        -1.1840389966964722,
        0.45724600553512573,
        -0.05404600128531456
      ],
      "type": "VEC3"
    },
    {
      "bufferView": 2,
      "byteOffset": 792360,
      "componentType": 5126,
      "count": 65532,
      "max": [
        0.9997013211250305,
        0.9999680519104004,
        0.9999467730522156
      ],
      "min": [
        -0.9994333386421204,
        -0.9999950528144836,
        -0.9998800754547119
      ],
      "type": "VEC3"
    },
    {
      "bufferView": 3,
      "componentType": 5126,
      "count": 65532,
      "max": [
        0.9999240040779114,
        0.9998904466629028,
        0.9985467195510864,
        1.0
      ],
      "min": [
        -0.9999998211860657,
        -0.9999470114707947,
        -0.9997787475585938,
        -1.0
      ],
      "type": "VEC4"
    },
    {
      "bufferView": 1,
      "byteOffset": 3984,
      "componentType": 5126,
      "count": 65532,
      "max": [
        0.3661290109157562,
        0.2583630084991455
      ],
      "min": [
        0.21512900292873383,
        0.08972000330686569
      ],
      "type": "VEC2"
    },
    {
      "bufferView": 0,
      "byteOffset": 2064,
      "componentType": 5125,
      "count": 196437,
      "type": "SCALAR"
    },
    {
      "bufferView": 2,
      "byteOffset": 1578744,
      "componentType": 5126,
      "count": 65532,
      "max": [
        1.1840389966964722,
        1.0166490077972412,
        0.753708004951477
      ],
      "min": [
        -1.1510870456695557,
        0.45724600553512573,
        -0.05404600128531456
      ],
      "type": "VEC3"
    },
    {
      "bufferView": 2,
      "byteOffset": 2365128,
      "componentType": 5126,
      "count": 65532,
      "max": [
        0.9994333386421204,
        0.9999680519104004,
        0.9999247193336487
      ],
      "min": [
        -0.9997013211250305,
        -0.9999948740005493,
        -0.9998995661735535
      ],
      "type": "VEC3"
    },
    {
      "bufferView": 3,
      "byteOffset": 1048512,
      "componentType": 5126,
      "count": 65532,
      "max": [
        0.9999998211860657,
        0.9998904466629028,
        0.9985467195510864,
        1.0
      ],
      "min": [
        -0.9999991655349731,
        -0.9999470114707947,
        -0.9999775886535645,
        -1.0
      ],
      "type": "VEC4"
    },
    {
      "bufferView": 1,
      "byteOffset": 528240,
      "componentType": 5126,
      "count": 65532,
      "max": [
        0.3661290109157562,
        0.2613320052623749
      ],
      "min": [
        0.21512900292873383,
        0.08972000330686569
      ],
      "type": "VEC2"
    },
    {
      "bufferView": 0,
      "byteOffset": 787812,
      "componentType": 5125,
      "count": 195798,
      "type": "SCALAR"
    },
    {
      "bufferView": 2,
      "byteOffset": 3151512,
      "componentType": 5126,
      "count": 65534,
      "max": [
        1.1795589923858643,
        1.180724024772644,
        0.7626910209655762
      ],
      "min": [
        -1.1194449663162231,
        -0.16668599843978882,
        -0.8448950052261353
      ],
      "type": "VEC3"
    },
    {
      "bufferView": 2,
      "byteOffset": 3937920,
      "componentType": 5126,
      "count": 65534,
      "max": [
        0.9999845027923584,
        0.9999996423721313,
        0.9999467730522156
      ],
      "min": [
        -0.9999845027923584,
        -0.9999999403953552,
        -0.9999972581863403
      ],
      "type": "VEC3"
    },
    {
      "bufferView": 3,
      "byteOffset": 2097024,
      "componentType": 5126,
      "count": 65534,
      "max": [
        0.9999994039535522,
        0.9999918937683105,
        0.9985405206680298,
        1.0
      ],
      "min": [
        -0.9999944567680359,
        -0.9999889731407166,
        -0.9991293549537659,
        -1.0
      ],
      "type": "VEC4"
    },
    {
      "bufferView": 1,
      "byteOffset": 1052496,
      "componentType": 5126,
      "count": 65534,
      "max": [
        0.9940059781074524,
        0.9944080114364624
      ],
      "min": [
        0.011187000200152397,
        0.009065999649465084
      ],
      "type": "VEC2"
    },
    {
      "bufferView": 0,
      "byteOffset": 1571004,
      "componentType": 5125,
      "count": 253773,
      "type": "SCALAR"
    },
    {
      "bufferView": 2,
      "byteOffset": 4724328,
      "componentType": 5126,
      "count": 32104,
      "max": [
        1.1287280321121216,
        1.0141429901123047,
        0.7407270073890686
      ],
      "min": [
        -1.1795589923858643,
        -0.08351899683475494,
        -0.8448950052261353
      ],
      "type": "VEC3"
    },
    {
      "bufferView": 2,
      "byteOffset": 5109576,
      "componentType": 5126,
      "count": 32104,
      "max": [
        0.9999763369560242,
        0.9999858736991882,
        0.9998851418495178
      ],
      "min": [
        -0.9993554949760437,
        -0.999994695186615,
        -0.9998820424079895
      ],
      "type": "VEC3"
    },
    {
      "bufferView": 3,
      "byteOffset": 3145568,
      "componentType": 5126,
      "count": 32104,
      "max": [
        0.9999857544898987,
        0.9999918937683105,
        0.9973129630088806,
        1.0
      ],
      "min": [
        -0.999990701675415,
        -0.9999889731407166,
        -0.9988581538200378,
        -1.0
      ],
      "type": "VEC4"
    },
    {
      "bufferView": 1,
      "byteOffset": 1576768,
      "componentType": 5126,
      "count": 32104,
      "max": [
        0.5732300281524658,
        0.9857209920883179
      ],
      "min": [
        0.014814999885857105,
        0.08972000330686569
      ],
      "type": "VEC2"
    },
    {
      "bufferView": 0,
      "byteOffset": 2586096,
      "componentType": 5125,
      "count": 65328,
      "type": "SCALAR"
    }
  ],
  "asset": {
    "extras": {
      "author": "JuanG3D (https://sketchfab.com/juang3d)",
      "license": "CC-BY-4.0 (http://creativecommons.org/licenses/by/4.0/)",
      "source": "https://sketchfab.com/3d-models/joker-mask-61cb585e8c8c49deadad6379df9da95b",
      "title": "Joker Mask"
    },
    "generator": "Sketchfab-12.65.0",
    "version": "2.0"
  },
  "bufferViews": [
    {
      "buffer": 0,
      "byteLength": 2847408,
      "name": "floatBufferViews",
      "target": 34963
    },
    {
      "buffer": 0,
      "byteLength": 1833600,
      "byteOffset": 2847408,
      "byteStride": 8,
      "name": "floatBufferViews",
      "target": 34962
    },
    {
      "buffer": 0,
      "byteLength": 5494824,
      "byteOffset": 4681008,
      "byteStride": 12,
      "name": "floatBufferViews",
      "target": 34962
    },
    {
      "buffer": 0,
      "byteLength": 3659232,
      "byteOffset": 10175832,
      "byteStride": 16,
      "name": "floatBufferViews",
      "target": 34962
    }
  ],
  "buffers": [
    {
      "byteLength": 13835064,
      "uri": "scene.bin"
    }
  ],
  "images": [
    {
      "uri": "textures/JokerMat_baseColor.jpeg"
    },
    {
      "uri": "textures/JokerMat_metallicRoughness.png"
    },
    {
      "uri": "textures/JokerMat_normal.png"
    }
  ],
  "materials": [
    {
      "doubleSided": true,
      "name": "JokerMat",
      "normalTexture": {
        "index": 2
      },
      "pbrMetallicRoughness": {
        "baseColorTexture": {
          "index": 0
        },
        "metallicFactor": 0.09612163807611046,
        "metallicRoughnessTexture": {
          "index": 1
        }
      }
    }
  ],
  "meshes": [
    {
      "name": "Object_0",
      "primitives": [
        {
          "attributes": {
            "POSITION": 0,
            "TEXCOORD_0": 1
          },
          "indices": 2,
          "material": 0,
          "mode": 1
        }
      ]
    },
    {
      "name": "Object_1",
      "primitives": [
        {
          "attributes": {
            "NORMAL": 4,
            "POSITION": 3,
            "TANGENT": 5,
            "TEXCOORD_0": 6
          },
          "indices": 7,
          "material": 0,
          "mode": 4
        }
      ]
    },
    {
      "name": "Object_2",
      "primitives": [
        {
          "attributes": {
            "NORMAL": 9,
            "POSITION": 8,
            "TANGENT": 10,
            "TEXCOORD_0": 11
          },
          "indices": 12,
          "material": 0,
          "mode": 4
        }
      ]
    },
    {
      "name": "Object_3",
      "primitives": [
        {
          "attributes": {
            "NORMAL": 14,
            "POSITION": 13,
            "TANGENT": 15,
            "TEXCOORD_0": 16
          },
          "indices": 17,
          "material": 0,
          "mode": 4
        }
      ]
    },
    {
      "name": "Object_4",
      "primitives": [
        {
          "attributes": {
            "NORMAL": 19,
            "POSITION": 18,
            "TANGENT": 20,
            "TEXCOORD_0": 21
          },
          "indices": 22,
          "material": 0,
          "mode": 4
        }
      ]
    }
  ],
  "nodes": [
    {
      "children": [
        1
      ],
      "matrix": [
        1.0,
        0.0,
        0.0,
        0.0,
        0.0,
        2.220446049250313e-16,
        -1.0,
        0.0,
        0.0,
        1.0,
        2.220446049250313e-16,
        0.0,
        0.0,
        0.0,
        0.0,
        1.0
      ],
      "name": "Sketchfab_model"
    },
    {
      "children": [
        2,
        3,
        4,
        5,
        6
      ],
      "name": "Joker.obj.cleaner.materialmerger.gles"
    },
    {
      "mesh": 0,
      "name": "Object_2"
    },
    {
      "mesh": 1,
      "name": "Object_3"
    },
    {
      "mesh": 2,
      "name": "Object_4"
    },
    {
      "mesh": 3,
      "name": "Object_5"
    },
    {
      "mesh": 4,
      "name": "Object_6"
    }
  ],
  "samplers": [
    {
      "magFilter": 9729,
      "minFilter": 9987,
      "wrapS": 10497,
      "wrapT": 10497
    }
  ],
  "scene": 0,
  "scenes": [
    {
      "name": "Sketchfab_Scene",
      "nodes": [
        0
      ]
    }
  ],
  "textures": [
    {
      "sampler": 0,
      "source": 0
    },
    {
      "sampler": 0,
      "source": 1
    },
    {
      "sampler": 0,
      "source": 2
    }
  ]
}
