{
  "accessors": [
    {
      "bufferView": 2,
      "componentType": 5126,
      "count": 3285,
      "max": [
        0.44029101729393005,
        0.4428578019142151,
        0.5274554491043091
      ],
      "min": [
        -0.44029101729393005,
        -0.4438343346118927,
        -0.9585781097412109
      ],
      "type": "VEC3"
    },
    {
      "bufferView": 2,
      "byteOffset": 39420,
      "componentType": 5126,
      "count": 3285,
      "max": [
        0.999283492565155,
        0.9995331168174744,
        0.8825923800468445
      ],
      "min": [
        -0.9994199872016907,
        -0.9998885989189148,
        -0.9731988310813904
      ],
      "type": "VEC3"
    },
    {
      "bufferView": 3,
      "componentType": 5126,
      "count": 3285,
      "max": [
        0.9999920725822449,
        0.9867799878120422,
        0.999869704246521,
        1.0
      ],
      "min": [
        -0.9365716576576233,
        -0.9918074607849121,
        -0.999767541885376,
        -1.0
      ],
      "type": "VEC4"
    },
    {
      "bufferView": 1,
      "componentType": 5126,
      "count": 3285,
      "max": [
        0.9770609140396118,
        0.9972402453422546
      ],
      "min": [
        0.0069273412227630615,
        0.025740385055541992
      ],
      "type": "VEC2"
    },
    {
      "bufferView": 0,
      "componentType": 5125,
      "count": 14634,
      "type": "SCALAR"
    }
  ],
  "asset": {
    "extras": {
      "author": "ShadowSupreme (https://sketchfab.com/ShadowSupreme)",
      "license": "SKETCHFAB Standard (https://sketchfab.com/licenses)",
      "source": "https://sketchfab.com/3d-models/jason-mask-e4835b7ecfb949abab16cc2065a1e738",
      "title": "Jason Mask"
    },
    "generator": "Sketchfab-15.49.0",
    "version": "2.0"
  },
  "bufferViews": [
    {
      "buffer": 0,
      "byteLength": 58536,
      "name": "floatBufferViews",
      "target": 34963
    },
    {
      "buffer": 0,
      "byteLength": 26280,
      "byteOffset": 58536,
      "byteStride": 8,
      "name": "floatBufferViews",
      "target": 34962
    },
    {
      "buffer": 0,
      "byteLength": 78840,
      "byteOffset": 84816,
      "byteStride": 12,
      "name": "floatBufferViews",
      "target": 34962
    },
    {
      "buffer": 0,
      "byteLength": 52560,
      "byteOffset": 163656,
      "byteStride": 16,
      "name": "floatBufferViews",
      "target": 34962
    }
  ],
  "buffers": [
    {
      "byteLength": 216216,
      "uri": "scene.bin"
    }
  ],
  "extensionsUsed": [
    "KHR_materials_specular"
  ],
  "images": [
    {
      "uri": "textures/lambert1_baseColor.png"
    },
    {
      "uri": "textures/lambert1_metallicRoughness.png"
    },
    {
      "uri": "textures/lambert1_normal.png"
    }
  ],
  "materials": [
    {
      "doubleSided": true,
      "extensions": {
        "KHR_materials_specular": {
          "specularColorFactor": [
            1.0,
            1.0,
            1.0
          ],
          "specularFactor": 0.10901050599249489
        }
      },
      "name": "lambert1",
      "normalTexture": {
        "index": 2
      },
      "pbrMetallicRoughness": {
        "baseColorTexture": {
          "index": 0
        },
        "metallicRoughnessTexture": {
          "index": 1
        }
      }
    }
  ],
  "meshes": [
    {
      "name": "Jason_Mask_V01_GEO_lambert1_0",
      "primitives": [
        {
          "attributes": {
            "NORMAL": 1,
            "POSITION": 0,
            "TANGENT": 2,
            "TEXCOORD_0": 3
          },
          "indices": 4,
          "material": 0,
          "mode": 4
        }
      ]
    }
  ],
  "nodes": [
    {
      "children": [
        1
      ],
      "matrix": [
        1.0,
        0.0,
        0.0,
        0.0,
        0.0,
        2.220446049250313e-16,
        -1.0,
        0.0,
        0.0,
        1.0,
        2.220446049250313e-16,
        0.0,
        0.0,
        0.0,
        0.0,
        1.0
      ],
      "name": "Sketchfab_model"
    },
    {
      "children": [
        2
      ],
      "matrix": [
        0.009999999776482582,
        0.0,
        0.0,
        0.0,
        0.0,
        0.0,
        0.009999999776482582,
        0.0,
        0.0,
        -0.009999999776482582,
        0.0,
        0.0,
        0.0,
        0.0,
        0.0,
        1.0
      ],
      "name": "d73698c284fc48fca154451898279e43.fbx"
    },
    {
      "children": [
        3
      ],
      "name": "RootNode"
    },
    {
      "children": [
        4
      ],
      "matrix": [
        -106.23063659667969,
        1.3009500907950943e-14,
        -1.3009500907950949e-14,
        0.0,
        1.8646951737417652e-14,
        152.263916015625,
        1.8646951737417652e-14,
        0.0,
        2.8229464902314393e-15,
        2.8229464902314385e-15,
        -23.05110740661621,
        0.0,
        0.0,
        0.0,
        0.0,
        1.0
      ],
      "name": "Jason_Mask_V01_GEO"
    },
    {
      "mesh": 0,
      "name": "Jason_Mask_V01_GEO_lambert1_0"
    }
  ],
  "samplers": [
    {
      "magFilter": 9729,
      "minFilter": 9987,
      "wrapS": 10497,
      "wrapT": 10497
    }
  ],
  "scene": 0,
  "scenes": [
    {
      "name": "Sketchfab_Scene",
      "nodes": [
        0
      ]
    }
  ],
  "textures": [
    {
      "sampler": 0,
      "source": 0
    },
    {
      "sampler": 0,
      "source": 1
    },
    {
      "sampler": 0,
      "source": 2
    }
  ]
}
