{
  "accessors": [
    {
      "bufferView": 2,
      "componentType": 5126,
      "count": 662,
      "max": [
        0.4007692039012909,
        4.7514495849609375,
        2.9434444904327393
      ],
      "min": [
        -0.18933695554733276,
        -3.767490863800049,
        -2.9434444904327393
      ],
      "type": "VEC3"
    },
    {
      "bufferView": 2,
      "byteOffset": 7944,
      "componentType": 5126,
      "count": 662,
      "max": [
        1.0,
        1.0,
        0.9994645714759827
      ],
      "min": [
        -1.0,
        -1.0,
        -1.0
      ],
      "type": "VEC3"
    },
    {
      "bufferView": 1,
      "componentType": 5126,
      "count": 662,
      "max": [
        0.875,
        1.0
      ],
      "min": [
        0.0,
        0.0
      ],
      "type": "VEC2"
    },
    {
      "bufferView": 0,
      "componentType": 5125,
      "count": 1323,
      "type": "SCALAR"
    },
    {
      "bufferView": 2,
      "byteOffset": 15888,
      "componentType": 5126,
      "count": 179,
      "max": [
        0.16130930185317993,
        1.8735817670822144,
        2.5396652221679688
      ],
      "min": [
        -0.18933695554733276,
        0.614706814289093,
        -2.5396652221679688
      ],
      "type": "VEC3"
    },
    {
      "bufferView": 2,
      "byteOffset": 18036,
      "componentType": 5126,
      "count": 179,
      "max": [
        8.208556391764432e-05,
        0.9747010469436646,
        0.9993002414703369
      ],
      "min": [
        -9.133653975368361e-07,
        -0.9999150037765503,
        -0.9993002414703369
      ],
      "type": "VEC3"
    },
    {
      "bufferView": 1,
      "byteOffset": 5296,
      "componentType": 5126,
      "count": 179,
      "max": [
        0.7767199873924255,
        0.9017199277877808
      ],
      "min": [
        0.3749999701976776,
        0.34828001260757446
      ],
      "type": "VEC2"
    },
    {
      "bufferView": 0,
      "byteOffset": 5292,
      "componentType": 5125,
      "count": 378,
      "type": "SCALAR"
    }
  ],
  "asset": {
    "extras": {
      "author": "SpyTrollface (https://sketchfab.com/espinafrealfredo)",
      "license": "SKETCHFAB Standard (https://sketchfab.com/licenses)",
      "source": "https://sketchfab.com/3d-models/classic-mf-doom-mask-af981d4aa177403893575b837c2519ab",
      "title": "Classic MF DOOM Mask"
    },
    "generator": "Sketchfab-16.17.0",
    "version": "2.0"
  },
  "bufferViews": [
    {
      "buffer": 0,
      "byteLength": 6804,
      "name": "floatBufferViews",
      "target": 34963
    },
    {
      "buffer": 0,
      "byteLength": 6728,
      "byteOffset": 6804,
      "byteStride": 8,
      "name": "floatBufferViews",
      "target": 34962
    },
    {
      "buffer": 0,
      "byteLength": 20184,
      "byteOffset": 13532,
      "byteStride": 12,
      "name": "floatBufferViews",
      "target": 34962
    }
  ],
  "buffers": [
    {
      "byteLength": 33716,
      "uri": "scene.bin"
    }
  ],
  "materials": [
    {
      "doubleSided": true,
      "name": "material_0",
      "pbrMetallicRoughness": {
        "metallicFactor": 0.0,
        "roughnessFactor": 0.6
      }
    },
    {
      "doubleSided": true,
      "name": "mask-material",
      "pbrMetallicRoughness": {
        "baseColorFactor": [
          0.132301,
          0.132301,
          0.132301,
          1.0
        ],
        "metallicFactor": 0.75,
        "roughnessFactor": 0.05
      }
    }
  ],
  "meshes": [
    {
      "name": "Object_0",
      "primitives": [
        {
          "attributes": {
            "NORMAL": 1,
            "POSITION": 0,
            "TEXCOORD_0": 2
          },
          "indices": 3,
          "material": 1,
          "mode": 4
        }
      ]
    },
    {
      "name": "Object_1",
      "primitives": [
        {
          "attributes": {
            "NORMAL": 5,
            "POSITION": 4,
            "TEXCOORD_0": 6
          },
          "indices": 7,
          "material": 0,
          "mode": 4
        }
      ]
    }
  ],
  "nodes": [
    {
      "children": [
        1
      ],
      "matrix": [
        1.0,
        0.0,
        0.0,
        0.0,
        0.0,
        2.220446049250313e-16,
        -1.0,
        0.0,
        0.0,
        1.0,
        2.220446049250313e-16,
        0.0,
        0.0,
        0.0,
        0.0,
        1.0
      ],
      "name": "Sketchfab_model"
    },
    {
      "children": [
        2
      ],
      "name": "root"
    },
    {
      "children": [
        3
      ],
      "matrix": [
        1.0,
        0.0,
        0.0,
        0.0,
        0.0,
        2.220446049250313e-16,
        1.0,
        0.0,
        0.0,
        -1.0,
        2.220446049250313e-16,
        0.0,
        0.0,
        0.0,
        0.0,
        1.0
      ],
      "name": "GLTF_SceneRootNode"
    },
    {
      "children": [
        4,
        5
      ],
      "name": "mfdoom-mask_0"
    },
    {
      "mesh": 0,
      "name": "Object_4"
    },
    {
      "mesh": 1,
      "name": "Object_5"
    }
  ],
  "scene": 0,
  "scenes": [
    {
      "name": "Sketchfab_Scene",
      "nodes": [
        0
      ]
    }
  ]
}
